Coordinates
version=1
nRows=22
nColumns=34
inDegrees=no

Units are S.I. units (second, meters, Newtons, ...)
If the header above contains a line with 'inDegrees', this indicates whether rotational values are in degrees (yes) or radians (no).

endheader
time	pelvis_tilt	pelvis_list	pelvis_rotation	pelvis_tx	pelvis_ty	pelvis_tz	hip_flexion_r	hip_adduction_r	hip_rotation_r	knee_angle_r	ankle_angle_r	subtalar_angle_r	mtp_angle_r	hip_flexion_l	hip_adduction_l	hip_rotation_l	knee_angle_l	ankle_angle_l	subtalar_angle_l	mtp_angle_l	lumbar_extension	lumbar_bending	lumbar_rotation	arm_flex_r	arm_add_r	arm_rot_r	elbow_flex_r	pro_sup_r	arm_flex_l	arm_add_l	arm_rot_l	elbow_flex_l	pro_sup_l
8.88	-0.804543	0.0186516	-0.0323466	-0.324788	0.622288	-0.623546	1.86313	-0.323614	-0.0781874	1.63462	0.675901	-0.0318341	-0.0994175	1.87288	-0.377328	-0.0407572	1.61723	0.667317	0.100724	-0.0994548	0.0864756	-0.00057554	-0.0176038	0.901553	-0.519409	0.668971	2.40969	1.95864	0.915695	-0.487294	0.765396	2.31357	2.09738
8.89	-0.808914	0.0201119	-0.0313417	-0.323597	0.628303	-0.623578	1.85298	-0.320924	-0.079547	1.61433	0.668894	-0.0359461	-0.0994175	1.86038	-0.372654	-0.0468328	1.59608	0.660023	0.093852	-0.0994547	0.0995597	-0.00203449	-0.0171584	0.875281	-0.521264	0.661801	2.41257	1.95348	0.883476	-0.484917	0.754506	2.31907	2.09243
8.9	-0.813086	0.0212875	-0.0303969	-0.322278	0.634701	-0.623582	1.8415	-0.318172	-0.0815485	1.59261	0.661422	-0.0399877	-0.0994176	1.84687	-0.368187	-0.0530956	1.57352	0.652265	0.0872553	-0.0994546	0.112807	-0.0032796	-0.0162792	0.847414	-0.523458	0.654537	2.41481	1.94755	0.850438	-0.482318	0.743953	2.32316	2.08506
8.91	-0.816852	0.0221581	-0.0295049	-0.320825	0.641474	-0.623562	1.82848	-0.31539	-0.0842743	1.56948	0.653454	-0.0440687	-0.0994176	1.83217	-0.363933	-0.0595412	1.54958	0.644077	0.0809691	-0.0994545	0.125927	-0.00428688	-0.0150079	0.818094	-0.525916	0.647108	2.41636	1.94114	0.816787	-0.479496	0.733738	2.32571	2.07519
8.92	-0.82002	0.0227176	-0.028668	-0.319231	0.648611	-0.623521	1.81376	-0.312596	-0.0877875	1.54495	0.644956	-0.0483239	-0.0994177	1.81614	-0.359891	-0.066159	1.52432	0.635491	0.0749988	-0.0994544	0.138658	-0.005041	-0.0133974	0.78746	-0.52852	0.639406	2.41717	1.93457	0.782685	-0.476459	0.723809	2.32666	2.06315
8.93	-0.822431	0.0229762	-0.0279046	-0.317488	0.656092	-0.623461	1.79723	-0.309778	-0.0921075	1.51903	0.635914	-0.0528509	-0.0994178	1.79863	-0.356056	-0.0729323	1.49781	0.626544	0.0693365	-0.0994543	0.150791	-0.00554116	-0.0114971	0.755637	-0.531115	0.631295	2.41722	1.92806	0.748254	-0.473219	0.714059	2.32601	2.04959
8.94	-0.823965	0.022962	-0.0272481	-0.315591	0.663889	-0.623385	1.77885	-0.306906	-0.097193	1.4918	0.626336	-0.0576642	-0.0994178	1.77959	-0.352434	-0.0798418	1.47013	0.617267	0.0639724	-0.0994542	0.162188	-0.00580482	-0.00934657	0.722729	-0.533515	0.622635	2.41652	1.92158	0.713564	-0.469786	0.704354	2.32385	2.03526
8.95	-0.824559	0.0227227	-0.0267364	-0.313534	0.671967	-0.623294	1.75864	-0.303939	-0.102941	1.46335	0.616263	-0.0626902	-0.0994179	1.75898	-0.349029	-0.0868695	1.4414	0.607694	0.0589031	-0.0994541	0.172798	-0.00586928	-0.00698222	0.688838	-0.535514	0.613327	2.41512	1.91469	0.678641	-0.466172	0.694584	2.32039	2.02041
8.96	-0.824206	0.0223251	-0.0263961	-0.311311	0.680286	-0.623187	1.73671	-0.300844	-0.1092	1.43382	0.60576	-0.0677915	-0.0994179	1.73684	-0.345831	-0.094006	1.41174	0.597852	0.0541438	-0.099454	0.182661	-0.00579177	-0.00445316	0.654074	-0.53691	0.603342	2.41306	1.90666	0.643465	-0.462408	0.684671	2.31595	2.00485
8.97	-0.82294	0.0218513	-0.026227	-0.308913	0.6888	-0.623066	1.71323	-0.297619	-0.115792	1.40335	0.594913	-0.0728029	-0.099418	1.71325	-0.342804	-0.101257	1.38126	0.587768	0.0497376	-0.0994539	0.191887	-0.00564806	-0.00183704	0.618573	-0.537527	0.592727	2.41039	1.89666	0.607982	-0.45853	0.674544	2.3109	1.98817
8.98	-0.820819	0.0213902	-0.0261916	-0.306332	0.697459	-0.622937	1.68839	-0.294305	-0.122536	1.37211	0.583818	-0.0775589	-0.0994181	1.68831	-0.339875	-0.108641	1.35009	0.577471	0.0457458	-0.0994538	0.200617	-0.00552522	0.000750517	0.582501	-0.537233	0.581586	2.4071	1.88408	0.572125	-0.454573	0.664112	2.3056	1.97005
8.99	-0.817891	0.0210264	-0.0262146	-0.30356	0.706216	-0.622812	1.66236	-0.290993	-0.129267	1.34024	0.572582	-0.0819077	-0.0994181	1.66208	-0.336929	-0.116189	1.31834	0.566993	0.0422182	-0.0994537	0.208979	-0.00550746	0.00315947	0.546059	-0.535956	0.570063	2.40316	1.86874	0.535838	-0.450545	0.65325	2.30034	1.95058
9	-0.814176	0.0208228	-0.0261998	-0.300592	0.71503	-0.622708	1.63525	-0.287802	-0.135861	1.30789	0.561305	-0.0857199	-0.0994182	1.63463	-0.333823	-0.123923	1.28611	0.55637	0.0391614	-0.0994536	0.217048	-0.00565629	0.00522915	0.509481	-0.533699	0.558317	2.3985	1.85099	0.499101	-0.446418	0.641808	2.29527	1.93032
9.01	-0.809665	0.0208028	-0.0260624	-0.297426	0.723864	-0.622644	1.60714	-0.284839	-0.142254	1.27518	0.550074	-0.088897	-0.0994183	1.60602	-0.330434	-0.131839	1.25348	0.54564	0.036534	-0.0994535	0.224833	-0.00598902	0.00682954	0.473008	-0.530531	0.546506	2.39307	1.83163	0.46195	-0.442131	0.629654	2.29042	1.91014
9.02	-0.804321	0.0209394	-0.025761	-0.294069	0.732688	-0.622632	1.57805	-0.282161	-0.148459	1.2422	0.538948	-0.0913786	-0.0994183	1.57627	-0.326692	-0.139884	1.22056	0.534842	0.0342692	-0.0994534	0.232282	-0.0064672	0.0079011	0.436864	-0.526578	0.534763	2.38685	1.81156	0.424487	-0.437596	0.616736	2.28574	1.89079
9.03	-0.798093	0.0211637	-0.0253063	-0.290531	0.741475	-0.622677	1.54796	-0.279759	-0.154551	1.20904	0.527962	-0.0931361	-0.0994184	1.54546	-0.322599	-0.147957	1.18745	0.524009	0.032298	-0.0994533	0.239299	-0.00700866	0.00847038	0.401211	-0.522003	0.523169	2.37994	1.79173	0.386875	-0.432722	0.603098	2.28114	1.87279
9.04	-0.790933	0.0213941	-0.0247458	-0.286826	0.750202	-0.622772	1.51684	-0.277582	-0.16064	1.17577	0.517127	-0.0941604	-0.0994185	1.51364	-0.318203	-0.155933	1.15423	0.513166	0.0305516	-0.0994532	0.245765	-0.00752396	0.00864075	0.366134	-0.516971	0.511713	2.37248	1.77325	0.349328	-0.427427	0.588852	2.27647	1.85666
9.05	-0.782804	0.0215748	-0.0241369	-0.282971	0.758848	-0.622907	1.4847	-0.275574	-0.166817	1.14246	0.506439	-0.0944616	-0.0994185	1.48088	-0.313558	-0.163707	1.12098	0.502325	0.0289486	-0.0994531	0.251557	-0.00796407	0.00857187	0.331617	-0.51163	0.50031	2.3647	1.75706	0.312101	-0.42166	0.574176	2.27158	1.84272
9.06	-0.773698	0.0217042	-0.0235245	-0.278987	0.767396	-0.623067	1.45158	-0.273691	-0.173118	1.10919	0.495881	-0.0940753	-0.0994186	1.44723	-0.308692	-0.171225	1.08773	0.491476	0.0273971	-0.099453	0.25657	-0.00835393	0.00845903	0.297552	-0.506091	0.488814	2.35689	1.74378	0.27548	-0.415413	0.559303	2.26633	1.83101
9.07	-0.763643	0.0218388	-0.0229343	-0.274896	0.775829	-0.623236	1.41759	-0.271915	-0.179507	1.07603	0.485428	-0.0930687	-0.0994187	1.41273	-0.303604	-0.178494	1.0545	0.480593	0.0258181	-0.0994529	0.260733	-0.00879194	0.00851053	0.263759	-0.500411	0.477055	2.34934	1.73367	0.239762	-0.408725	0.544495	2.26063	1.82137
9.08	-0.752707	0.0220682	-0.0223809	-0.27072	0.78413	-0.623405	1.38288	-0.270235	-0.185901	1.04305	0.475051	-0.0915375	-0.0994187	1.37747	-0.29828	-0.185565	1.02129	0.469644	0.0241676	-0.0994528	0.264029	-0.00941243	0.00891566	0.230049	-0.494594	0.464888	2.34228	1.72659	0.205213	-0.401687	0.529994	2.25443	1.8135
9.09	-0.740992	0.0224786	-0.0218804	-0.266483	0.792277	-0.623565	1.34766	-0.268634	-0.192205	1.0103	0.464725	-0.0895887	-0.0994188	1.34156	-0.292718	-0.192503	0.988111	0.458603	0.022448	-0.0994527	0.266495	-0.0103318	0.00980713	0.196294	-0.488599	0.452248	2.33588	1.72215	0.172026	-0.394431	0.515968	2.24777	1.8071
